<?xml version="1.0" standalone="no"?>
<!DOCTYPE svg PUBLIC "-//W3C//DTD SVG 20010904//EN"
 "http://www.w3.org/TR/2001/REC-SVG-20010904/DTD/svg10.dtd">
<svg version="1.0" xmlns="http://www.w3.org/2000/svg"
 width="300.000000pt" height="225.000000pt" viewBox="0 0 300.000000 225.000000"
 preserveAspectRatio="xMidYMid meet">
<metadata>
Created by potrace 1.10, written by Peter Selinger 2001-2011
</metadata>
<g transform="translate(-500.00000,600.000000) scale(0.20000,-0.20000)"
fill="white" stroke="none">
<path d="M230 4475 c-33 -11 -72 -24 -86 -28 -71 -19 -13 -93 95 -120 59 -16
120 -38 134 -49 14 -12 34 -16 44 -10 10 6 29 -1 42 -17 30 -36 74 -21 87 30
12 44 -24 43 -60 -1 -21 -26 -25 -23 -25 17 -1 42 -5 45 -36 21 -19 -15 -28
-18 -19 -8 10 11 -23 32 -80 51 l-96 33 66 34 c106 55 58 90 -66 47z"/>
<path d="M730 4469 c95 -73 328 -315 379 -396 31 -49 90 -108 131 -131 42 -23
90 -64 108 -92 18 -27 51 -50 72 -50 22 0 40 -8 40 -18 0 -25 55 -44 160 -55
50 -6 111 -24 137 -40 35 -23 45 -24 39 -5 -5 14 -49 39 -99 57 -57 19 -88 41
-82 57 5 14 -2 39 -16 55 -19 23 -19 29 1 29 19 0 18 8 -3 34 -18 23 -19 29
-2 19 24 -15 27 -8 33 72 1 14 14 38 29 53 14 15 22 45 16 65 -5 20 -2 37 7
37 9 0 21 13 27 29 7 19 1 25 -18 18 -16 -6 -35 -33 -41 -59 -8 -29 -21 -42
-35 -34 -16 10 -16 5 1 -16 18 -23 15 -39 -15 -78 -21 -28 -38 -62 -39 -77 0
-24 -5 -24 -34 0 -23 18 -29 19 -19 2 9 -14 6 -25 -6 -25 -11 0 -21 14 -21 30
0 17 11 30 25 30 18 1 17 6 -3 18 -15 10 -22 32 -16 50 7 18 5 32 -5 32 -10 0
-34 5 -54 12 -31 10 -32 8 -7 -10 17 -12 23 -22 14 -22 -8 0 -5 -19 7 -42 14
-25 15 -38 3 -30 -11 7 -25 1 -31 -13 -6 -15 -10 -10 -11 11 -1 20 -11 31 -22
24 -11 -7 -20 -2 -20 10 0 12 -10 16 -23 8 -16 -10 -20 -1 -12 29 14 52 -17
79 -32 28 -6 -19 -9 3 -7 49 4 59 -2 78 -17 65 -28 -23 -49 -4 -49 44 0 20 -7
36 -15 35 -51 -8 -69 7 -29 23 30 12 60 12 83 0 25 -14 47 -11 73 9 35 26 34
27 -19 18 -40 -7 -66 1 -87 26 -16 20 -24 25 -17 12 6 -13 3 -29 -9 -36 -11
-7 -21 -5 -22 4 0 9 -4 32 -8 51 -3 19 4 35 16 35 15 0 15 7 -2 24 -19 19 -29
19 -48 0 -13 -13 -17 -24 -8 -24 9 0 6 -13 -8 -30 -20 -25 -19 -30 8 -30 40 0
41 -14 1 -54 -29 -29 -35 -29 -65 2 -30 29 -30 36 -4 52 26 17 26 19 -2 20
-23 0 -29 15 -22 59 8 60 -14 70 -74 32 -19 -12 -24 -10 -14 6 10 17 -24 23
-122 22 -125 0 -133 -3 -96 -30z"/>
<path d="M1329 4469 c-22 -18 -26 -25 -11 -17 21 11 25 6 16 -19 -7 -18 -3
-33 8 -33 11 0 15 -9 8 -20 -7 -11 -3 -20 8 -20 11 0 25 9 32 20 7 11 3 20 -9
20 -30 0 -26 75 4 87 14 5 15 11 4 11 -12 1 -39 -12 -60 -29z"/>
<path d="M1569 4482 c6 -10 -3 -23 -20 -29 -24 -10 -25 -19 -6 -50 21 -33 28
-35 52 -11 16 16 38 22 50 15 12 -8 15 -4 7 10 -10 16 -26 17 -52 3 -23 -12
-42 -13 -49 -2 -6 10 16 25 49 32 73 16 79 50 9 50 -28 0 -46 -8 -40 -18z"/>
<path d="M1740 4480 c0 -11 -11 -18 -24 -15 -16 3 -23 -17 -19 -60 3 -35 -1
-76 -10 -90 -23 -37 -26 -77 -5 -64 10 6 18 25 18 41 0 17 10 24 22 17 14 -9
17 10 9 60 -7 47 -4 69 9 61 11 -7 20 6 20 29 0 22 -4 41 -10 41 -5 0 -10 -9
-10 -20z"/>
<path d="M2280 4479 c0 -12 -11 -15 -25 -7 -14 8 -18 7 -10 -2 8 -9 3 -30 -10
-47 -20 -24 -20 -28 0 -16 18 11 22 -2 14 -51 -11 -72 25 -12 42 69 3 19 12
44 19 55 7 11 3 20 -9 20 -11 0 -21 -10 -21 -21z"/>
<path d="M2581 4477 c0 -19 -12 -38 -26 -44 -14 -5 -9 -11 12 -11 33 -2 34 -7
12 -37 -25 -33 -25 -33 11 -1 30 28 33 43 15 80 -16 34 -23 37 -24 13z"/>
<path d="M2838 4460 c-3 -27 -6 -63 -8 -80 -11 -115 -36 -221 -53 -232 -14 -9
-15 -17 -1 -26 11 -6 16 -37 10 -67 -6 -30 -18 -50 -28 -44 -10 6 -10 -8 -2
-32 9 -23 4 -125 -10 -226 -15 -100 -29 -214 -31 -253 -5 -72 -35 -120 -75
-120 -12 0 -18 -8 -12 -17 6 -10 -6 -33 -27 -52 -21 -19 -35 -52 -31 -72 4
-21 1 -36 -6 -34 -8 3 -16 -2 -18 -11 -3 -8 -18 -29 -35 -46 -17 -17 -31 -44
-31 -59 0 -16 -8 -29 -18 -29 -10 0 -16 -16 -15 -35 2 -20 -9 -33 -24 -29 -47
10 -86 -40 -79 -103 4 -38 -4 -63 -22 -69 -20 -7 -24 1 -15 25 7 19 7 45 -1
58 -9 14 -19 3 -27 -27 -10 -42 -16 -33 -36 56 -28 128 -29 208 -2 314 11 44
24 95 28 113 4 18 22 61 40 95 18 34 26 62 18 62 -8 0 11 27 43 60 31 33 51
65 44 72 -7 8 10 31 37 52 27 21 49 52 49 68 0 17 13 54 28 84 15 30 32 86 37
125 5 39 20 91 32 114 31 57 33 55 -55 55 -43 0 -74 -7 -69 -15 5 -8 23 -15
40 -15 36 0 25 -144 -12 -156 -11 -4 -16 -16 -10 -25 15 -25 -51 -160 -84
-173 -15 -6 -27 -20 -27 -31 0 -11 -16 -33 -35 -49 -23 -19 -25 -24 -5 -16 26
11 26 10 0 -14 -17 -14 -27 -48 -23 -74 l7 -48 -167 14 c-168 14 -365 64 -475
121 -108 56 -188 -3 -116 -85 34 -39 83 -134 103 -199 13 -44 11 -45 -163 -46
-97 0 -266 -8 -376 -18 -110 -10 -315 -24 -456 -32 l-256 -14 -59 56 c-57 54
-115 200 -90 225 11 10 675 101 757 103 29 1 32 8 15 40 -12 21 -21 60 -21 86
0 64 -17 78 -64 53 -30 -16 -36 -34 -26 -79 13 -58 11 -59 -68 -59 -61 0 -78
7 -70 28 10 26 -62 112 -94 112 -20 0 -40 -92 -27 -126 7 -18 -5 -33 -35 -41
-85 -23 -94 -15 -108 87 -7 55 -20 100 -29 100 -9 0 -30 6 -48 13 -27 10 -31
3 -20 -39 7 -27 4 -67 -7 -87 -23 -45 -9 -92 23 -74 15 9 16 6 3 -8 -54 -55
-170 -49 -174 9 -2 31 -5 74 -8 96 -2 22 -5 60 -6 83 -2 40 -107 89 -133 63
-26 -26 48 -515 89 -587 99 -175 55 -169 942 -120 291 16 536 23 543 15 16
-18 70 -419 86 -639 l12 -165 -66 40 c-36 22 -78 40 -95 39 -16 0 2 -14 40
-31 39 -16 102 -61 140 -98 39 -38 79 -69 90 -69 131 -6 150 -22 150 -129 0
-123 -26 -161 -88 -128 -23 13 -109 21 -192 19 -82 -2 -312 10 -509 27 -520
44 -478 50 -466 -70 8 -88 5 -100 -29 -100 -62 0 -66 -57 -8 -117 73 -77 76
-346 4 -378 -69 -32 -63 -105 9 -105 51 0 59 -7 59 -56 l0 -56 615 -117 c433
-81 658 -134 761 -176 80 -33 151 -54 158 -48 6 7 -14 22 -46 35 -52 20 -54
24 -19 37 35 13 32 18 -25 52 -35 21 -64 45 -64 53 0 9 -23 16 -51 16 -34 0
-47 8 -37 23 10 16 3 20 -20 10 -20 -7 -40 -13 -45 -13 -5 0 -4 -9 3 -20 7
-11 4 -20 -7 -20 -10 0 -24 14 -30 30 -7 17 -25 30 -41 30 -16 0 -35 19 -43
43 -10 32 -17 36 -30 16 -9 -15 -11 -35 -5 -45 14 -23 -152 3 -194 30 -20 12
-1 15 60 8 50 -5 79 -5 66 0 -40 17 -5 68 46 68 46 0 57 21 53 100 -1 16 7 35
19 42 39 25 -6 58 -79 58 -81 0 -40 56 45 61 35 3 34 5 -6 16 -26 7 -46 20
-45 28 0 8 1 47 1 86 0 39 8 66 18 60 9 -6 22 7 28 29 7 26 0 40 -18 40 -17 0
-28 20 -28 50 0 57 41 66 87 21 25 -26 31 -26 40 -2 6 16 0 33 -13 38 -13 5
-1 11 26 12 36 1 42 6 23 19 -15 9 -55 11 -90 3 -36 -8 -149 0 -263 19 l-200
34 170 15 c94 9 176 25 183 37 10 15 23 14 45 -4 16 -14 64 -22 106 -19 104 9
170 -139 91 -203 -52 -42 -57 -77 -15 -108 16 -12 32 -44 36 -71 4 -27 19 -53
34 -58 15 -5 20 1 12 14 -22 35 0 27 31 -11 18 -23 19 -29 2 -19 -29 18 -32
-35 -5 -97 15 -35 18 -32 20 20 2 54 4 56 20 17 16 -40 75 -64 194 -78 68 -8
82 -24 78 -91 -3 -37 6 -66 23 -73 15 -5 23 -23 17 -38 -6 -15 -1 -27 10 -27
11 0 15 -9 8 -20 -15 -25 51 -119 85 -119 14 -1 25 -14 25 -30 0 -39 77 -91
115 -76 23 8 26 1 16 -32 -8 -26 -5 -43 8 -43 11 0 21 -18 21 -40 0 -25 13
-40 35 -40 27 1 29 4 8 18 -21 13 -22 20 -3 32 27 16 59 -22 60 -70 1 -27 3
-27 22 0 16 22 18 11 9 -45 -10 -61 -7 -72 17 -63 38 14 59 77 58 167 -1 63 1
65 27 31 15 -21 27 -68 27 -105 0 -46 8 -66 25 -60 16 6 24 42 22 97 l-3 88
30 -69 c16 -38 26 -94 21 -125 -6 -39 1 -56 21 -56 17 0 24 12 17 30 -7 16 -3
30 8 30 10 0 19 -11 19 -23 0 -13 6 -18 12 -11 7 7 -6 44 -29 83 -52 89 -22
94 37 6 24 -36 39 -50 33 -32 -15 49 9 62 40 22 19 -25 18 -13 -4 42 -38 95
-30 108 29 45 65 -69 93 -200 40 -186 -21 6 -38 1 -38 -10 0 -12 -14 -10 -32
5 -21 18 -36 20 -45 6 -20 -33 -148 -68 -251 -70 -76 -2 -89 -7 -70 -30 27
-32 -4 -37 -36 -5 -13 13 -18 37 -11 54 9 23 3 28 -22 18 -21 -8 -33 -3 -33
17 0 16 -18 29 -41 29 -39 0 -39 2 -7 65 l33 65 -43 -44 c-36 -38 -102 -45
-102 -12 0 6 14 5 30 -1 21 -8 30 1 30 29 0 27 8 35 25 25 18 -10 17 -5 -2 18
-21 27 -34 29 -64 10 -30 -19 -43 -18 -64 3 -21 23 -18 26 15 15 37 -12 38
-11 5 14 -19 15 -35 34 -35 43 0 9 -48 71 -107 138 -70 80 -106 138 -103 168
2 29 -16 62 -48 87 -29 23 -39 39 -22 37 69 -10 84 -1 52 31 -52 52 -153 79
-174 47 -12 -20 -17 -21 -18 -3 0 14 -22 25 -48 25 -27 0 -52 10 -56 22 -4 13
-23 19 -41 15 -27 -6 -18 -25 48 -97 44 -49 89 -111 99 -137 10 -26 50 -95 89
-153 39 -59 74 -126 79 -149 9 -47 80 -169 129 -223 243 -264 344 -321 590
-334 130 -7 178 -1 232 27 38 19 154 59 259 89 104 30 208 62 230 71 36 15 37
13 11 -19 -19 -24 -31 -104 -37 -253 l-9 -219 63 0 62 0 0 270 c0 224 5 270
29 270 49 0 209 182 273 310 33 66 54 98 46 70 -23 -87 -130 -288 -182 -343
-28 -30 -47 -65 -42 -79 11 -34 123 130 199 292 68 145 98 382 61 487 -19 54
-14 75 30 155 33 59 58 142 66 226 12 112 56 253 120 383 9 17 27 85 40 150
14 66 70 249 125 408 137 398 110 558 -139 823 l-130 137 57 23 c31 13 117 22
190 20 102 -3 172 11 310 58 97 34 257 84 355 111 98 27 202 64 230 83 63 43
128 79 225 129 104 52 243 266 149 231 -50 -20 -38 18 18 54 59 39 67 125 15
164 -33 25 -33 27 1 27 20 1 31 10 24 21 -7 11 -32 16 -56 11 -24 -4 -51 -9
-59 -10 -8 0 -15 -11 -15 -23 0 -12 14 -17 30 -11 34 13 41 -18 10 -37 -12 -7
-15 -22 -8 -34 8 -12 2 -17 -14 -11 -15 5 -26 20 -23 32 9 41 -30 24 -41 -17
-6 -22 -3 -40 6 -40 9 0 13 -16 10 -35 -4 -19 -8 -47 -8 -62 -1 -18 -19 -24
-51 -18 -27 5 -53 0 -57 -12 -12 -38 -97 68 -90 113 4 24 16 42 27 40 11 -2
20 13 20 33 0 20 -10 32 -23 27 -13 -5 -30 1 -37 13 -8 12 -24 16 -36 8 -13
-8 -17 -2 -11 16 8 20 -3 30 -36 33 -27 2 -48 -4 -48 -14 0 -30 58 -67 88 -56
16 7 33 -1 39 -16 7 -17 1 -24 -15 -18 -42 16 -55 -49 -20 -102 19 -29 26 -66
18 -94 -9 -34 -7 -39 7 -17 17 24 25 19 45 -25 22 -48 19 -58 -23 -95 -40 -35
-43 -44 -18 -60 16 -10 20 -18 9 -18 -64 0 -151 173 -103 204 17 10 16 14 -2
15 -14 0 -25 14 -25 31 0 17 -9 26 -20 19 -12 -7 -14 -23 -6 -36 21 -34 21
-58 0 -101 -12 -26 -11 -34 4 -24 13 8 17 1 10 -18 -7 -17 -22 -25 -35 -17
-14 8 -13 1 2 -18 24 -29 16 -96 -12 -96 -31 0 -128 188 -108 208 6 7 1 12
-12 12 -13 0 -22 7 -21 15 2 8 0 24 -3 35 -3 11 -6 47 -7 80 -2 33 -13 60 -26
60 -12 0 -30 7 -39 17 -9 9 -8 15 3 12 42 -8 59 2 31 20 -18 11 -43 11 -65 -1
-25 -13 -48 -12 -71 3 -29 18 -29 20 -2 12 17 -5 56 3 85 18 29 15 48 19 41 8
-6 -10 -7 -19 -1 -19 50 0 41 71 -10 73 -31 1 -53 -6 -47 -15 6 -10 4 -19 -5
-20 -9 0 -32 -4 -52 -8 -29 -5 -32 -1 -13 22 19 22 17 28 -9 28 -27 0 -33 -17
-29 -79 3 -45 13 -73 24 -67 12 7 14 -1 7 -20 -7 -19 -6 -32 2 -31 46 10 81
-29 65 -71 -13 -34 -8 -50 21 -69 21 -13 38 -37 38 -53 0 -17 8 -30 18 -30 21
0 40 -111 23 -137 -14 -22 -161 -41 -161 -21 0 8 11 19 25 24 19 7 17 18 -8
44 -34 36 -77 -22 -49 -66 5 -9 -40 -16 -100 -14 -61 1 -115 -5 -120 -14 -6
-8 5 -10 24 -2 25 9 30 6 18 -14 -11 -17 -8 -21 7 -12 12 8 39 5 58 -7 27 -16
20 -18 -35 -11 -102 14 -128 20 -151 34 -37 23 -72 -56 -38 -85 40 -33 36 -54
-14 -81 -37 -19 -41 -18 -30 10 7 20 1 38 -17 45 -16 6 -25 19 -19 29 6 10 0
18 -15 18 -19 1 -20 4 -2 16 16 10 18 25 5 45 -15 23 -18 24 -19 1 0 -15 -16
-40 -35 -56 -19 -16 -24 -23 -10 -16 14 7 25 3 25 -9 0 -11 -9 -21 -20 -21
-11 0 -26 -2 -33 -5 -7 -3 -15 10 -18 29 -3 18 7 38 22 43 14 6 36 31 49 57
19 39 18 41 -4 14 -14 -18 -35 -32 -46 -32 -44 0 -96 -124 -67 -160 24 -30 23
-31 -13 -11 -31 17 -47 15 -73 -8 -30 -27 -35 -26 -47 12 -7 22 -23 41 -35 41
-16 0 -16 -7 1 -24 13 -13 24 -38 23 -55 0 -20 -20 -9 -56 34 -31 36 -64 65
-73 65 -10 0 -7 -11 6 -24 13 -13 24 -36 24 -51 0 -15 25 -49 56 -74 30 -26
57 -66 58 -89 4 -51 -11 -53 -47 -7 -26 33 -29 33 -57 -4 -27 -35 -30 -35 -30
-4 0 20 -8 30 -19 24 -10 -6 -24 -3 -30 8 -7 10 -27 14 -45 7 -22 -9 -28 -5
-18 11 8 12 5 23 -7 23 -24 0 -27 -22 -9 -68 7 -18 29 -32 50 -32 21 0 37 -7
35 -15 -8 -37 29 -82 58 -70 20 7 27 4 18 -10 -8 -12 -5 -28 7 -35 11 -7 20
-4 20 6 0 38 80 41 100 5 10 -20 13 -41 6 -48 -7 -7 -2 -13 12 -13 13 0 18
-10 10 -23 -10 -16 -1 -20 29 -12 25 7 38 3 31 -8 -6 -11 -39 -13 -71 -6 -59
13 -59 12 -24 -29 20 -23 59 -43 86 -43 46 -2 47 -3 11 -18 -37 -15 -35 -18
16 -31 75 -20 150 -154 144 -260 -8 -153 -34 -187 -108 -141 -20 12 -24 10
-12 -9 10 -17 8 -21 -5 -13 -12 7 -17 42 -12 78 9 57 7 61 -16 30 -24 -31 -27
-27 -31 38 -2 40 -15 81 -30 90 -21 13 -21 16 0 17 15 0 21 9 14 20 -7 12 -20
16 -29 11 -22 -14 -65 39 -47 57 8 7 -6 19 -30 25 -24 6 -39 20 -33 29 6 10
-3 18 -21 18 -18 0 -27 9 -20 20 7 11 4 20 -7 20 -11 0 -24 -11 -30 -25 -8
-20 -10 -19 -11 1 -1 14 12 30 28 37 45 17 36 52 -10 37 -23 -7 -40 -4 -40 9
0 11 9 21 20 21 11 0 20 10 20 21 0 12 -8 16 -18 10 -9 -6 -29 3 -42 19 -14
17 -38 30 -55 30 -24 0 -25 5 -5 30 22 26 20 29 -7 18 -65 -24 -43 -97 104
-354 23 -41 43 -92 43 -112 0 -20 13 -74 29 -119 18 -50 21 -87 10 -94 -11 -6
-25 5 -32 25 -7 20 -26 68 -43 106 -17 39 -29 77 -27 86 2 8 -10 42 -27 74
-17 33 -30 64 -30 70 0 6 -22 35 -50 65 -27 30 -50 70 -50 89 0 18 -9 39 -20
46 -11 7 -20 21 -20 32 0 11 9 15 20 8 11 -7 20 -5 21 4 0 9 3 93 7 186 3 94
13 186 21 205 10 24 6 35 -12 35 -16 0 -19 6 -7 15 37 27 23 172 -20 211 -26
25 -42 29 -47 13 -4 -13 0 -29 10 -36 39 -29 31 -87 -9 -65 -31 16 -39 42 -39
125 0 88 4 99 25 70 23 -32 26 -32 35 2 7 27 -3 38 -36 40 -41 4 -46 -7 -59
-120 -8 -69 -24 -131 -35 -138 -11 -7 -14 -23 -6 -35 7 -12 22 -18 32 -11 10
6 16 -46 14 -120 -3 -101 -35 -202 -35 -111 0 11 -9 20 -20 20 -11 0 -20 -27
-20 -60 0 -33 -9 -60 -19 -60 -11 0 -14 -15 -7 -34 11 -28 17 -24 31 20 21 62
57 74 41 14 -6 -23 -1 -40 13 -40 13 0 18 -9 11 -20 -7 -12 -21 -16 -30 -10
-10 6 -35 -8 -57 -31 -28 -31 -43 -36 -54 -17 -10 15 -7 19 7 10 16 -9 20 11
15 67 -5 45 0 81 10 81 39 0 20 104 -21 114 -22 6 -40 19 -40 28 0 10 -16 18
-35 19 -77 1 -112 51 -62 87 25 18 35 32 23 32 -13 0 -30 -10 -37 -21 -7 -12
-25 -17 -40 -11 -16 6 -23 0 -18 -14 6 -14 -17 -35 -52 -48 -51 -19 -63 -18
-73 7 -7 17 -27 26 -48 21 -20 -5 -52 4 -72 20 -35 28 -35 29 0 18 23 -7 31
-4 22 10 -7 13 -1 30 14 40 22 14 23 17 2 18 -17 0 -22 14 -15 38 7 22 2 45
-13 54 -14 8 -20 7 -12 -1 22 -25 -36 -71 -89 -71 -27 0 -66 -19 -87 -42 -21
-24 -59 -51 -84 -60 -26 -10 -41 -27 -34 -38 7 -11 0 -15 -15 -9 -33 13 -131
-73 -120 -105 4 -12 -11 -29 -34 -36 -29 -9 -41 -29 -39 -66 1 -30 -4 -83 -12
-119 -14 -59 -11 -64 22 -52 43 17 5 -46 -49 -80 -24 -15 -24 -20 0 -35 20
-13 17 -17 -14 -18 -27 0 -42 -14 -44 -45 -2 -24 -13 -48 -24 -51 -12 -4 -15
-18 -7 -31 8 -14 2 -13 -18 3 -28 22 -32 18 -28 -34 3 -43 -2 -55 -19 -42 -14
13 -23 11 -24 -5 -3 -53 -79 -234 -93 -221 -8 8 -8 -1 -1 -20 8 -19 4 -34 -9
-34 -28 0 -29 73 -1 91 12 7 17 23 13 36 -5 13 5 39 21 58 26 29 27 39 3 68
-25 30 -24 33 7 21 33 -12 47 18 36 76 -3 11 3 13 11 5 32 -32 133 165 104
202 -23 29 -22 30 9 6 45 -36 48 -27 75 227 12 110 31 286 42 390 12 105 25
222 29 260 4 39 11 88 16 110 6 22 12 67 14 100 l4 60 13 -60 c8 -33 2 -132
-12 -220 -27 -172 -57 -586 -41 -570 6 6 16 69 23 140 7 72 21 157 31 190 10
33 23 123 29 200 7 77 16 163 22 190 34 180 9 284 -40 165 -13 -32 -16 -32
-31 5 -15 37 -17 36 -21 -10z m1155 -625 c36 -57 25 -137 -19 -131 -31 5 -42
23 -47 81 -6 77 32 105 66 50z m-713 -13 c0 -24 -42 -54 -96 -68 -60 -14 -48
27 18 61 57 29 78 31 78 7z m80 -157 c0 -8 -25 -35 -55 -61 -30 -26 -44 -42
-31 -35 13 6 29 2 37 -11 10 -16 19 -14 31 5 11 19 15 14 13 -17 -2 -24 -10
-39 -19 -33 -9 5 -16 -5 -16 -22 0 -35 70 -43 91 -10 7 12 25 17 39 12 14 -6
30 6 36 26 7 28 22 34 64 26 36 -7 51 -3 43 10 -7 11 1 26 17 32 19 7 30 0 30
-19 0 -18 10 -25 25 -18 14 7 7 -2 -15 -21 -40 -34 -40 -34 3 -24 36 8 42 2
38 -38 -5 -38 0 -43 22 -25 16 14 27 15 27 3 0 -11 -13 -31 -30 -45 -17 -15
-26 -44 -20 -72 6 -27 15 -70 20 -98 13 -62 65 -67 60 -5 -2 24 8 56 22 70 43
43 54 28 20 -25 -29 -44 -29 -52 -4 -62 16 -6 25 -24 19 -40 -7 -17 1 -28 21
-28 18 0 32 -10 32 -21 0 -12 9 -16 20 -9 11 7 20 7 20 0 0 -7 -27 -21 -60
-33 -70 -25 -74 -43 -20 -97 42 -42 53 -148 21 -198 -14 -23 -50 0 -169 107
-134 119 -159 134 -215 126 -36 -5 -92 -3 -127 5 -74 17 -159 -9 -138 -43 8
-13 6 -18 -6 -11 -12 7 -41 -5 -66 -26 -26 -22 -53 -40 -62 -40 -9 0 -48 -28
-87 -62 -77 -67 -118 -62 -99 13 16 65 5 62 -83 -21 -41 -38 -65 -70 -52 -70
12 0 29 -28 38 -63 9 -35 39 -77 66 -94 l49 -32 -37 43 c-37 43 -36 43 20 45
109 3 127 8 127 36 0 15 -9 22 -20 15 -27 -16 1 56 29 75 37 26 53 16 33 -21
-22 -42 -9 -69 52 -101 38 -20 44 -17 51 22 7 42 9 41 24 -11 19 -67 7 -82
-65 -83 -84 -2 -85 -156 -4 -361 35 -87 36 -107 8 -118 -25 -10 -25 -18 4 -62
30 -46 30 -50 1 -38 -23 8 -38 -4 -52 -39 -20 -54 -115 -114 -175 -111 -24 1
-27 5 -9 12 17 7 6 23 -34 47 -88 54 -115 112 -60 130 32 10 36 17 16 30 -66
40 79 69 172 34 102 -38 117 -30 30 14 -66 35 -251 43 -231 11 7 -11 -2 -20
-19 -20 -17 0 -31 -13 -31 -30 0 -16 -10 -30 -22 -30 -14 0 -17 -20 -9 -55 18
-70 50 -108 76 -92 12 7 15 4 8 -8 -15 -24 20 -56 77 -72 22 -6 -52 -9 -164
-7 -262 5 -277 17 -257 204 10 94 26 143 53 166 28 24 38 59 38 133 0 56 13
160 29 231 17 72 40 181 52 244 21 113 142 324 206 360 47 26 16 -67 -40 -116
-46 -42 -118 -184 -101 -201 13 -13 64 41 112 120 24 38 57 74 74 81 18 7 27
25 21 42 -6 16 4 40 23 54 20 15 35 44 35 66 -1 22 12 50 29 63 16 13 29 44
30 70 0 30 19 55 55 73 30 14 55 37 55 50 0 15 -8 12 -20 -6 -15 -23 -19 -17
-20 26 0 33 8 51 20 44 11 -7 20 -3 20 9 0 49 85 120 122 100 48 -26 64 -24
52 7 -5 15 6 27 28 29 21 1 38 -3 38 -10z m-1197 -185 c2 -11 4 -31 5 -45 1
-14 11 -32 22 -40 17 -12 -26 -23 -71 -19 -10 1 -16 -78 -27 -361 -1 -30 -9
-55 -17 -55 -29 0 -14 -51 30 -101 25 -28 63 -50 85 -50 28 1 43 -16 52 -59 9
-38 14 -45 16 -20 2 28 7 33 19 15 11 -19 39 -4 99 56 84 82 121 66 42 -19
-26 -27 -38 -60 -32 -84 9 -32 5 -36 -16 -18 -50 41 -69 -36 -36 -146 16 -54
24 -111 18 -126 -6 -15 -2 -28 9 -28 18 0 23 33 27 158 1 31 15 50 39 54 32 4
35 -5 24 -62 -8 -43 -4 -69 11 -74 16 -5 19 -32 10 -81 -10 -55 -21 -70 -45
-61 -17 6 -40 -1 -51 -16 -14 -21 -17 -16 -9 18 8 38 0 48 -50 58 -39 7 -56
20 -48 39 38 92 38 94 11 77 -20 -12 -23 -5 -15 27 6 24 2 49 -10 56 -12 7
-17 5 -11 -5 6 -10 -1 -45 -15 -78 -22 -50 -28 -54 -40 -25 -7 20 -4 47 8 61
11 14 13 37 4 52 -10 17 -21 1 -31 -51 -12 -65 -17 -71 -31 -37 -9 22 -17 29
-18 16 -1 -18 -16 -19 -62 -3 -67 24 -103 88 -85 155 6 25 1 42 -13 42 -13 0
-18 9 -11 19 6 11 -3 94 -21 185 -19 92 -32 191 -31 221 1 30 -7 55 -18 55
-11 0 -20 20 -20 45 1 36 4 39 20 15 14 -22 19 -23 20 -4 0 15 8 21 19 15 10
-6 24 -2 32 11 10 16 18 16 29 -1 10 -18 22 -16 45 7 24 24 34 25 42 7 5 -14
11 9 11 50 1 41 11 75 22 75 11 0 20 23 20 50 0 47 37 73 43 30z m-293 -29
c11 -3 34 -10 50 -16 17 -7 55 -17 85 -24 34 -7 55 -25 55 -46 0 -21 -6 -27
-15 -14 -8 12 -62 20 -120 18 -86 -3 -105 3 -105 30 0 18 -11 45 -25 60 -21
22 -18 24 15 12 22 -8 49 -17 60 -20z m2042 -91 c-8 17 -1 13 16 -8 55 -68
-10 -93 -75 -28 -39 40 0 64 46 28 23 -17 26 -16 13 8z m102 -341 c24 -45 38
-96 32 -115 -7 -19 -5 -27 5 -19 46 42 130 -300 131 -533 0 -94 11 -174 27
-200 60 -96 51 -332 -12 -332 -16 0 -16 7 0 26 24 30 24 113 -1 147 -18 24
-15 70 6 87 7 6 4 33 -7 60 -14 36 -22 41 -29 20 -5 -16 -18 -49 -29 -72 -12
-24 -18 -98 -14 -165 l7 -123 -195 0 c-124 0 -195 8 -195 21 0 12 -9 15 -21 8
-22 -13 -126 83 -144 133 -8 23 -17 24 -52 3 -46 -27 -67 18 -22 46 12 7 17
25 12 39 -46 120 140 260 325 243 98 -8 123 -6 95 10 -21 12 -101 18 -183 14
-142 -7 -145 -7 -118 32 15 22 28 54 28 70 0 18 -11 10 -26 -19 -13 -27 -47
-61 -74 -74 -37 -19 -41 -25 -15 -26 47 0 45 -11 -29 -126 -35 -54 -74 -141
-87 -192 -19 -74 -32 -93 -71 -97 -88 -10 -105 20 -103 178 1 81 -11 191 -27
245 -27 96 -24 122 14 122 10 0 19 9 20 20 10 98 107 109 220 26 73 -55 178
-11 130 54 -22 31 -33 34 -57 14 -22 -18 -45 -19 -83 -5 -52 20 -72 61 -30 61
17 0 16 8 0 28 -29 35 11 55 60 30 17 -9 58 -13 90 -8 32 4 69 8 83 9 20 1 20
9 0 42 -15 24 -39 37 -60 32 -19 -5 -35 -3 -35 6 0 34 -75 11 -146 -45 -66
-51 -83 -56 -125 -37 -57 26 -63 56 -14 69 27 7 25 10 -9 12 -24 1 -50 12 -57
23 -7 12 -28 16 -46 9 -22 -8 -26 -6 -13 7 44 43 475 24 567 -25 43 -23 44
-28 15 -57 -42 -42 -40 -55 6 -55 45 0 91 -50 73 -79 -26 -42 52 -20 100 28
56 57 69 185 20 203 -51 20 -71 229 -27 283 32 38 42 31 90 -56z m-454 -92 c0
-12 18 -27 40 -33 25 -6 40 -27 40 -55 0 -37 -5 -40 -30 -19 -17 14 -37 20
-44 13 -7 -7 -24 -3 -37 8 -17 14 -30 14 -38 1 -8 -13 -30 -14 -63 -1 -27 10
-109 15 -180 10 -112 -8 -130 -4 -124 23 7 35 37 44 183 55 53 4 99 10 103 14
18 18 150 4 150 -16z m1019 -279 c-11 -28 -14 -60 -8 -70 6 -10 2 -18 -9 -18
-11 0 -17 34 -13 75 9 93 7 90 30 75 13 -7 12 -30 0 -62z m-202 -59 c26 -33
43 -42 49 -25 4 14 6 10 3 -10 -3 -20 2 -64 12 -99 12 -40 11 -71 -1 -83 -11
-11 -20 -29 -20 -41 0 -12 9 -7 20 9 17 27 19 27 19 0 0 -105 -55 -86 -78 27
-16 78 -59 95 -47 19 8 -54 8 -55 -24 -16 -20 25 -28 59 -21 90 7 28 14 61 17
74 4 14 12 31 20 39 7 7 4 25 -9 40 -15 18 -15 27 -1 27 12 0 39 -23 61 -51z
m-1220 -158 c4 -39 -2 -53 -20 -47 -15 5 -30 34 -34 65 -4 39 2 53 20 47 15
-5 30 -34 34 -65z m-1017 -233 c0 -33 -11 -58 -25 -58 -17 -1 -16 -7 4 -19 17
-10 24 -25 17 -32 -30 -29 -56 19 -56 102 0 70 6 85 30 76 17 -6 30 -36 30
-69z m204 -99 c-7 -129 -3 -167 23 -196 38 -41 21 -74 -20 -40 -57 47 -24 -18
41 -81 69 -67 105 -142 68 -142 -11 0 -15 -13 -9 -30 7 -16 3 -30 -8 -30 -10
0 -15 -20 -10 -45 4 -25 9 -45 11 -45 2 0 6 -16 10 -35 3 -19 -2 -30 -12 -24
-10 6 -18 23 -18 36 0 14 -16 43 -36 64 -20 22 -42 55 -50 75 -9 23 -31 35
-59 32 -61 -6 -147 32 -162 70 -15 41 15 41 56 1 17 -18 31 -25 31 -16 0 8 11
4 24 -9 27 -27 96 -33 96 -7 0 9 -21 26 -47 38 -61 28 -61 81 0 78 26 -2 51
-14 56 -28 5 -14 19 -25 31 -25 12 0 -1 24 -28 54 -34 36 -45 63 -33 85 8 17
10 106 3 197 -13 172 -11 184 28 184 17 0 21 -46 14 -161z m-89 4 c30 -57 33
-123 5 -123 -12 0 -12 -18 -1 -48 10 -26 14 -53 8 -59 -16 -15 -67 8 -67 30 0
11 9 14 20 7 27 -16 25 -1 -7 76 -65 156 -30 253 42 117z m2154 -24 c-6 -11
-2 -19 11 -19 15 0 15 -11 0 -40 -12 -23 -18 -47 -13 -55 5 -8 -4 -27 -20 -42
-26 -23 -28 -17 -17 50 10 60 8 71 -10 47 -20 -27 -22 -27 -12 0 7 17 18 46
24 65 7 19 21 30 31 23 10 -6 12 -19 6 -29z m-3367 -56 c2 -28 4 -28 12 2 10
37 24 42 74 23 18 -7 27 -20 21 -30 -6 -10 51 -18 128 -18 149 0 203 -12 203
-44 0 -13 -72 -15 -205 -5 -113 8 -214 14 -225 12 -116 -17 -174 -20 -130 -6
l50 15 -50 16 -50 16 50 16 c49 16 49 16 4 18 -26 1 -42 9 -36 18 18 31 152 2
154 -33z m736 -36 c5 -4 -38 -7 -95 -7 -56 0 -103 8 -103 18 0 16 179 6 198
-11z m-958 -147 c0 -22 -9 -40 -19 -40 -11 0 -29 18 -41 40 -18 34 -15 40 19
40 28 0 41 -13 41 -40z m169 -13 c9 -26 18 -28 36 -10 41 41 50 26 52 -86 l3
-110 -65 12 c-36 7 -76 21 -90 32 -17 14 -26 11 -27 -8 -3 -31 -35 116 -37
168 -1 47 109 49 128 2z m851 -27 c0 -46 -44 -53 -79 -12 -19 23 -15 31 23 38
25 5 48 10 51 11 3 2 5 -15 5 -37z m2078 -42 l219 -4 -9 -202 c-13 -308 -122
-566 -274 -645 -66 -35 -108 -18 -70 29 23 27 21 29 -14 13 -78 -37 -536 -21
-698 23 -53 15 -119 22 -145 16 -28 -8 -47 -3 -47 10 0 12 -16 22 -36 22 -56
0 -204 178 -204 245 0 15 -19 62 -42 106 -40 77 -67 297 -45 374 15 54 59 41
87 -25 14 -33 36 -60 49 -60 14 0 39 -16 57 -35 29 -33 102 -40 297 -27 39 2
59 86 27 116 -17 15 -54 16 -128 1 -73 -15 -117 -14 -148 1 -24 11 -71 30
-104 41 -50 17 -32 20 110 23 94 1 256 13 360 27 168 22 211 21 365 -10 96
-20 273 -37 393 -39z m-2733 12 c-12 -65 10 -65 35 0 20 52 91 55 154 6 24
-19 230 -9 292 15 23 9 34 3 34 -16 0 -17 5 -60 11 -97 l12 -68 -61 69 c-34
38 -67 62 -75 55 -7 -7 22 -45 65 -84 73 -68 80 -83 111 -266 39 -233 59 -212
-155 -164 -218 48 -250 49 -235 10 7 -19 -1 -30 -21 -30 -18 0 -32 10 -32 21
0 12 -9 16 -21 8 -11 -7 -34 -2 -50 12 -23 19 -29 18 -29 -2 0 -16 -14 -12
-42 13 -38 34 -44 35 -65 5 -31 -42 -105 3 -86 52 14 36 86 42 98 7 4 -13 22
-17 43 -9 22 8 32 25 25 43 -7 17 -26 113 -44 214 -17 101 -36 191 -41 200
-16 26 11 56 50 56 28 0 34 -12 27 -50z m-188 -236 c15 -19 11 -32 -18 -50
-35 -22 -39 -19 -39 26 0 55 23 65 57 24z m923 -184 c0 -16 -9 -30 -20 -30
-11 0 -21 -20 -21 -45 -2 -43 -3 -43 -19 -5 -30 70 -23 110 20 110 22 0 40
-13 40 -30z m420 -179 c0 -22 5 -63 11 -91 10 -50 10 -50 -10 -4 -11 26 -27
42 -36 37 -8 -5 -16 33 -18 83 -2 83 0 88 25 54 16 -21 28 -56 28 -79z m1875
-46 c2 -186 -185 -565 -279 -565 -22 0 -20 55 4 100 11 20 22 69 25 108 3 43
15 72 31 72 15 0 21 8 15 18 -6 10 0 23 14 29 19 7 18 15 -5 31 -24 17 -20 21
24 22 29 0 59 8 65 18 6 10 -9 13 -34 8 -37 -9 -33 -1 25 50 40 34 62 67 52
77 -10 9 -21 6 -26 -8 -5 -14 -28 -36 -52 -48 -38 -21 -38 -18 7 39 27 34 59
58 72 54 13 -4 29 15 36 41 18 72 24 60 26 -46z m-662 -470 c-11 -43 0 -44 40
-5 16 17 47 30 67 30 21 0 43 9 50 20 7 11 21 20 32 20 11 0 4 -22 -16 -48
-24 -32 -41 -40 -51 -25 -8 14 -15 4 -15 -23 0 -50 -66 -120 -172 -183 l-68
-40 33 51 c18 28 35 97 38 154 7 170 7 169 41 124 16 -22 26 -56 21 -75z
m-353 -236 c21 -15 1 -17 -70 -7 -55 7 -104 16 -108 21 -20 17 151 4 178 -14z"/>
<path d="M3300 3205 c-27 -5 -66 -23 -86 -41 -31 -28 -39 -28 -54 -4 -21 35
-19 38 -95 -105 -73 -137 -72 -137 56 -36 158 124 441 128 530 6 14 -19 31
-30 37 -24 45 45 -232 231 -322 216 -9 -1 -38 -7 -66 -12z"/>
<path d="M2535 2198 c-20 -11 -31 -28 -25 -38 6 -9 2 -23 -10 -30 -50 -31 -23
-250 34 -272 85 -32 130 40 82 128 -14 24 -29 86 -35 138 -10 82 -15 91 -46
74z"/>
<path d="M2902 2054 c-45 -45 -2 -134 65 -134 35 0 71 66 54 99 -24 45 -90 64
-119 35z"/>
<path d="M3680 2145 c-17 -4 -43 -13 -60 -20 -16 -6 -36 -10 -43 -9 -7 2 -24
-10 -38 -27 -19 -23 -18 -29 7 -29 17 0 35 -11 40 -25 7 -18 17 -16 37 9 15
19 72 42 126 50 l100 17 -70 21 c-38 12 -83 18 -99 13z"/>
<path d="M3679 1999 c-28 -53 6 -99 72 -99 58 0 93 55 67 104 -27 49 -111 46
-139 -5z"/>
<path d="M3866 2012 c44 -34 11 -124 -54 -145 -38 -12 -37 -15 17 -30 63 -17
140 28 124 72 -4 11 1 38 12 58 12 25 12 34 -1 26 -11 -7 -31 1 -44 17 -14 17
-40 30 -57 29 -29 0 -29 -4 3 -27z"/>
<path d="M3540 1695 c0 -16 7 -35 15 -43 14 -15 17 -23 23 -74 1 -17 10 -16
30 1 23 18 33 16 48 -10 51 -93 383 7 384 116 0 27 -110 16 -156 -16 -46 -33
-48 -33 -309 43 -22 7 -35 0 -35 -17z"/>
<path d="M3006 1348 c40 -22 53 -41 44 -67 -7 -22 0 -41 17 -47 40 -16 57 7
30 39 -17 21 -9 30 41 40 121 24 59 68 -95 66 l-93 -1 56 -30z"/>
<path d="M3540 1299 c0 -18 48 -29 90 -19 11 2 41 4 66 5 79 0 28 22 -66 28
-50 2 -90 -4 -90 -14z"/>
<path d="M1360 1726 c0 -57 100 -130 159 -116 77 19 98 50 35 50 -40 0 -54 10
-54 39 0 26 -10 36 -28 29 -16 -6 -48 -1 -70 11 -35 19 -42 17 -42 -13z"/>
<path d="M1240 1410 c0 -18 143 -92 168 -87 15 4 -16 27 -70 51 -54 24 -98 40
-98 36z"/>
<path d="M1372 1401 c10 -9 59 -23 108 -30 57 -8 79 -6 60 5 -40 25 -192 47
-168 25z"/>
<path d="M3777 4455 c-2 -25 -5 -54 -8 -65 -2 -11 -6 -33 -7 -50 -2 -27 -5
-27 -22 0 -12 18 -20 21 -20 6 0 -13 16 -33 35 -44 30 -18 30 -21 3 -21 -17
-1 -31 -14 -31 -29 0 -23 8 -23 44 5 25 18 36 38 25 46 -13 8 -13 16 -1 24 11
7 17 35 14 63 -3 27 2 46 11 40 24 -15 81 11 69 32 -6 10 -2 18 10 18 11 0 21
-19 21 -41 0 -27 -8 -36 -23 -27 -17 10 -19 4 -7 -24 10 -21 17 -72 17 -114 0
-41 9 -72 19 -69 18 6 21 41 16 235 -2 57 -82 96 -82 40 0 -11 -16 -20 -35
-20 -30 1 -31 3 -5 20 26 17 25 19 -5 20 -22 0 -36 -17 -38 -45z"/>
<path d="M4008 4452 c-23 -50 -6 -106 26 -86 21 13 20 -77 -2 -141 -8 -25 -23
-41 -32 -35 -10 6 -23 2 -29 -9 -7 -10 7 -29 30 -41 30 -16 36 -30 21 -47 -33
-40 -4 -133 42 -133 14 0 15 8 0 25 -29 35 -29 48 6 115 18 34 22 60 11 60
-12 0 -21 10 -21 21 0 12 7 17 16 12 9 -6 15 57 14 139 -1 113 5 147 24 139
14 -5 26 -1 26 10 0 43 -110 19 -132 -29z"/>
<path d="M4370 4473 c-12 -28 -19 -31 -32 -10 -13 20 -17 15 -18 -17 0 -32 9
-41 30 -33 17 6 30 22 30 34 0 13 9 10 20 -7 16 -25 19 -25 20 -2 0 16 6 23
13 16 7 -7 2 -26 -10 -41 -18 -21 -17 -33 7 -53 16 -13 24 -35 17 -47 -8 -13
-6 -16 3 -8 9 8 31 3 48 -10 28 -22 29 -21 5 10 -16 19 -20 36 -10 36 9 1 -1
10 -23 19 -39 17 -39 17 2 19 57 2 72 22 43 58 -21 26 -19 28 11 17 20 -8 31
-5 25 5 -6 10 4 22 24 28 19 6 -5 5 -55 0 -49 -6 -95 -14 -103 -19 -7 -4 -18
3 -23 17 -6 17 -14 13 -24 -12z"/>
<path d="M3444 4411 c1 -39 10 -71 19 -71 24 0 21 115 -2 130 -12 7 -19 -18
-17 -59z"/>
<path d="M3517 4436 c21 -27 20 -44 -6 -94 -40 -78 -39 -90 5 -47 42 42 45
113 5 149 -25 22 -25 21 -4 -8z"/>
<path d="M4740 4444 c0 -9 11 -27 24 -40 19 -19 17 -24 -9 -24 -18 0 -39 11
-47 24 -10 16 -19 11 -28 -15 -16 -44 17 -109 53 -109 14 0 31 20 38 45 8 25
20 50 28 55 7 6 -3 26 -23 45 -20 19 -36 28 -36 19z"/>
<path d="M68 4259 c44 -21 83 -34 89 -29 5 5 21 0 36 -13 15 -12 27 -17 27
-11 0 21 205 -61 222 -89 12 -19 17 -20 18 -2 0 17 14 19 48 6 26 -10 66 -14
89 -8 45 12 107 -36 102 -78 -11 -83 28 -131 71 -88 48 48 84 41 99 -22 12
-48 17 -50 34 -20 27 50 -69 175 -124 161 -27 -8 -39 -1 -39 22 0 18 -13 38
-30 45 -16 6 -30 29 -30 50 0 26 8 34 25 24 17 -10 16 -4 -2 19 -16 19 -38 34
-50 34 -13 0 -11 -8 5 -18 51 -33 -66 -89 -153 -73 -94 18 -256 67 -338 103
-109 48 -197 37 -99 -13z"/>
<path d="M2371 4262 c-25 -77 -28 -122 -10 -122 17 0 28 44 21 85 -1 8 7 15
18 15 11 0 20 14 20 30 0 43 -35 37 -49 -8z"/>
<path d="M4280 4284 c-34 -11 -60 -44 -59 -74 0 -11 10 -3 22 17 17 31 25 33
39 10 14 -22 18 -22 18 3 1 23 8 21 30 -9 16 -21 33 -34 38 -30 18 19 -60 92
-88 83z"/>
<path d="M3434 4245 c-9 -14 -11 -25 -4 -25 6 0 3 -16 -8 -36 -16 -31 -10 -36
45 -38 34 -1 48 2 29 7 -18 5 -36 34 -40 63 -4 36 -11 46 -22 29z"/>
<path d="M3755 4225 c-30 -19 -55 -42 -55 -51 0 -9 -8 -11 -18 -5 -21 13 -53
-105 -34 -124 6 -6 -6 -24 -28 -39 -46 -32 -53 -86 -12 -86 39 0 87 60 49 61
-15 1 -7 12 18 24 25 12 51 42 58 68 6 26 19 42 29 36 10 -6 18 -2 18 10 0 28
-26 27 -59 -4 -22 -20 -25 -18 -14 12 7 20 13 40 13 44 0 4 12 3 27 -3 15 -6
33 4 40 21 6 17 26 31 44 31 17 0 26 9 19 20 -17 27 -31 25 -95 -15z"/>
<path d="M4280 4179 c0 -12 -8 -16 -19 -10 -10 6 -24 2 -31 -9 -7 -11 -20 -16
-30 -10 -19 12 -15 -42 6 -62 16 -17 69 25 96 75 13 25 13 37 -1 37 -12 0 -21
-10 -21 -21z"/>
<path d="M4764 4187 c20 -6 29 -22 23 -38 -14 -35 16 -38 49 -5 37 37 29 47
-41 50 -36 1 -50 -2 -31 -7z"/>
<path d="M4885 4190 c8 -9 -1 -27 -20 -41 -19 -14 -29 -31 -23 -38 18 -18 79
10 67 31 -20 31 16 19 40 -13 20 -28 22 -27 22 9 0 22 -3 36 -8 32 -5 -5 -27
1 -51 13 -23 13 -35 15 -27 7z"/>
<path d="M4860 4078 c-23 -16 -20 -18 15 -8 26 7 45 4 45 -9 0 -11 -16 -22
-35 -22 -30 -2 -29 -4 5 -18 48 -19 78 16 46 53 -25 31 -37 32 -76 4z"/>
<path d="M4654 4054 c-8 -22 2 -41 29 -56 25 -13 37 -14 29 -2 -7 11 -3 24 7
27 13 5 13 18 1 37 -16 25 -20 23 -21 -10 -2 -39 -2 -39 -17 -1 -13 34 -16 34
-28 5z"/>
<path d="M4956 3976 c-6 -41 -8 -42 -41 -8 -30 30 -35 31 -35 3 0 -17 11 -32
25 -33 14 -1 43 -3 66 -6 31 -4 41 7 41 42 0 58 -47 61 -56 2z"/>
<path d="M4335 3925 c-18 -36 -2 -72 40 -87 58 -22 59 10 1 51 -52 36 -48 37
41 12 57 -16 63 -15 42 10 -25 30 -111 40 -124 14z"/>
<path d="M5841 3797 c-67 -35 -70 -41 -66 -138 3 -74 -3 -100 -20 -93 -14 4
-22 23 -19 41 6 36 -46 46 -66 13 -7 -11 1 -15 16 -9 22 9 28 -4 23 -55 -3
-36 -1 -55 4 -41 15 35 48 10 34 -26 -6 -16 -21 -22 -34 -15 -13 8 -9 -8 8
-35 32 -51 30 -128 -3 -108 -10 6 -18 2 -18 -10 0 -11 11 -21 25 -21 15 0 27
-31 30 -75 4 -58 0 -68 -16 -45 -17 23 -18 18 -7 -20 33 -115 43 -179 26 -169
-10 6 -18 -17 -18 -51 0 -36 -8 -57 -20 -50 -11 7 -20 -8 -20 -34 1 -37 4 -40
20 -16 12 18 20 20 20 6 0 -13 -9 -29 -19 -36 -12 -7 -12 -31 1 -64 11 -29 14
-80 7 -112 -9 -41 -6 -55 9 -45 30 19 28 -19 -3 -45 -17 -14 -24 -73 -22 -177
2 -86 -5 -172 -16 -192 -12 -23 -11 -50 4 -77 13 -24 14 -37 3 -31 -11 7 -25
-1 -32 -19 -17 -45 -14 -63 5 -32 10 15 17 -38 18 -126 1 -124 -4 -151 -27
-142 -24 9 -24 4 -1 -34 41 -67 44 -214 5 -214 -23 0 -33 21 -34 75 l-2 75
-16 -68 c-13 -54 -8 -76 21 -108 21 -22 35 -55 31 -72 -10 -52 -38 -111 -58
-125 -32 -21 -21 -113 17 -151 35 -35 35 -36 0 -43 -30 -6 -31 -11 -9 -25 23
-15 23 -21 1 -35 -21 -14 -20 -20 6 -30 24 -9 28 -22 15 -48 -10 -19 -15 -46
-10 -59 5 -13 -2 -43 -15 -67 -19 -36 -18 -41 4 -28 22 14 22 11 0 -17 -22
-27 -23 -40 -3 -63 22 -27 -15 -100 -43 -85 -4 2 4 -6 17 -18 19 -16 19 -27 2
-44 -28 -28 -42 -104 -20 -104 8 0 18 -27 20 -60 3 -33 -5 -60 -16 -60 -11 0
-20 -10 -20 -21 0 -12 10 -15 23 -7 14 9 18 5 9 -8 -8 -13 -3 -43 10 -67 19
-37 17 -49 -14 -73 -24 -18 -30 -32 -15 -37 13 -5 19 -34 14 -68 -8 -52 -4
-59 42 -59 49 0 51 5 51 115 1 145 36 898 49 1045 6 61 15 281 21 490 6 209
15 416 20 460 5 44 13 229 19 410 12 380 33 867 41 940 3 28 6 106 8 175 2
122 3 125 57 125 59 1 121 30 102 50 -26 26 -91 21 -156 -13z"/>
<path d="M1238 3653 c18 -22 16 -31 -7 -40 -17 -6 -31 -3 -31 8 0 48 -110 19
-113 -30 -3 -62 57 -77 219 -54 118 17 205 63 118 63 -24 0 -44 8 -44 17 0 10
-22 15 -50 12 -27 -3 -50 2 -50 11 0 8 -15 21 -33 28 -26 10 -28 7 -9 -15z"/>
<path d="M5331 3655 c-24 -79 -34 -200 -41 -495 -20 -796 -82 -2470 -107
-2850 -11 -180 -19 -219 -43 -213 -17 5 -106 25 -199 47 -200 45 -199 45 -142
91 l45 36 37 1370 c21 753 43 1479 50 1614 l13 245 108 0 c97 0 117 8 183 70
l75 71 -60 -14 c-33 -7 -64 -20 -70 -27 -9 -13 -47 -27 -217 -79 -37 -11 -75
-16 -84 -10 -63 39 -75 -306 -14 -402 33 -54 16 -346 -25 -399 -36 -47 -51
-359 -70 -1470 -14 -871 -26 -1056 -67 -1079 -18 -10 -28 -22 -23 -27 12 -11
564 -117 571 -109 2 3 15 275 27 605 13 330 27 650 32 710 5 61 14 295 21 520
6 226 20 608 30 850 32 757 21 1110 -30 945z"/>
<path d="M5935 3629 c-5 -28 -12 -139 -14 -245 -2 -107 -7 -225 -10 -263 -4
-39 -13 -246 -20 -460 -7 -215 -21 -548 -31 -741 -10 -192 -23 -471 -30 -620
-6 -148 -15 -333 -20 -410 -5 -77 -14 -270 -20 -430 -6 -159 -16 -328 -22
-375 -11 -91 -1 -99 78 -63 47 21 49 31 61 305 21 451 55 1101 72 1383 30 498
26 1970 -6 1970 -16 0 -33 -23 -38 -51z"/>
<path d="M5110 3426 c-19 -45 -21 -149 -4 -193 7 -18 5 -33 -4 -33 -19 0 -15
-192 9 -408 11 -102 9 -134 -8 -124 -22 14 -33 -13 -24 -58 2 -11 4 -33 4 -50
-2 -121 -4 -275 -3 -300 1 -16 -4 -75 -9 -130 -6 -55 -11 -126 -10 -158 0 -33
-10 -65 -22 -72 -27 -17 -42 -160 -17 -160 26 0 17 -204 -10 -239 -18 -23 -16
-25 8 -11 25 15 26 13 4 -14 -18 -22 -19 -37 -5 -46 12 -7 17 -21 10 -31 -6
-10 -10 -84 -8 -164 4 -271 3 -338 -7 -348 -6 -5 -3 -36 6 -67 10 -36 9 -60
-4 -65 -11 -3 -19 -28 -18 -56 7 -202 -2 -297 -32 -346 -7 -10 -2 -13 11 -5
15 10 23 -5 23 -46 0 -55 30 -99 52 -76 5 5 18 246 28 537 10 290 24 626 29
747 6 121 16 458 22 748 6 291 14 535 19 542 18 30 14 624 -5 643 -13 13 -25
8 -35 -17z"/>
<path d="M2 3248 c2 -132 6 -161 18 -112 15 63 7 264 -11 282 -5 5 -8 -72 -7
-170z"/>
<path d="M0 2403 c0 -13 25 -23 55 -24 47 0 50 -3 20 -21 -19 -11 -44 -15 -55
-8 -11 7 -20 -6 -20 -29 0 -35 13 -41 95 -42 52 -1 116 -6 141 -11 28 -5 41 0
34 12 -7 11 1 20 17 20 23 0 32 -45 41 -215 7 -118 17 -290 22 -383 l11 -167
-66 13 c-191 39 -226 38 -229 -6 -4 -50 85 -119 115 -89 11 11 58 15 104 8 91
-12 100 -27 70 -131 -9 -33 -21 -75 -25 -93 -4 -19 -20 -59 -36 -89 l-29 -56
-85 184 c-47 101 -93 184 -103 184 -25 0 -23 -8 38 -145 97 -219 134 -285 163
-285 37 0 170 345 146 377 -10 13 -19 73 -21 133 -5 138 33 93 51 -62 24 -201
39 -42 23 242 -36 634 -38 656 -74 670 -67 26 -403 37 -403 13z m416 -88 c-3
-25 -15 -45 -26 -45 -11 0 -23 20 -26 45 -5 31 3 45 26 45 23 0 31 -14 26 -45z"/>
<path d="M580 2238 c0 -11 8 -15 18 -9 11 6 31 0 45 -14 31 -29 67 -29 135 -1
37 15 42 23 22 36 -17 11 -31 8 -36 -7 -4 -13 -18 -17 -31 -9 -36 23 -153 26
-153 4z"/>
<path d="M40 2100 l-6 -110 -14 90 c-9 57 -15 -34 -17 -244 -2 -220 4 -338 19
-347 13 -9 19 7 17 44 -11 128 5 300 21 237 21 -83 22 206 1 340 l-16 100 -5
-110z"/>
<path d="M4651 1785 c-29 -262 -36 -363 -39 -515 -1 -88 -10 -173 -21 -189
-12 -19 -10 -31 5 -36 31 -11 31 -46 0 -40 -27 6 -32 -45 -13 -140 7 -36 4
-71 -7 -77 -11 -7 -15 -29 -10 -50 6 -21 0 -38 -13 -38 -13 0 -10 -9 7 -20 20
-13 22 -19 5 -20 -35 0 -31 -73 5 -87 17 -7 30 -23 30 -37 -1 -20 -4 -20 -18
1 -13 21 -19 20 -29 -5 -6 -18 -4 -32 5 -32 10 0 18 -43 18 -95 1 -100 10
-171 35 -248 l15 -46 16 44 c19 50 51 1745 33 1745 -6 0 -17 -52 -24 -115z"/>
<path d="M1960 1640 c0 -76 3 -80 60 -80 33 0 60 7 60 15 -1 34 -37 69 -58 56
-14 -8 -22 5 -22 38 0 28 -9 51 -20 51 -11 0 -20 -36 -20 -80z"/>
<path d="M1963 1260 c-29 -76 41 -147 88 -89 18 21 26 28 19 14 -17 -35 20
-31 50 5 23 27 14 39 -25 32 -8 -1 -15 11 -15 27 0 19 -12 25 -32 17 -18 -6
-40 1 -49 16 -13 21 -21 15 -36 -22z"/>
<path d="M4287 530 c0 -77 3 -106 8 -65 4 42 4 105 -1 140 -4 36 -8 2 -7 -75z"/>
<path d="M4190 480 c-7 -44 -12 -84 -11 -90 1 -6 -13 -38 -30 -72 -18 -35 -24
-57 -13 -51 21 13 22 -150 2 -167 -23 -18 20 -100 51 -100 26 0 31 42 31 280
0 290 -7 336 -30 200z"/>
<path d="M4414 527 c9 -23 5 -29 -11 -19 -38 24 -50 -44 -13 -81 28 -28 36
-29 52 -5 29 46 22 138 -11 138 -20 0 -25 -12 -17 -33z"/>
<path d="M4360 233 c0 -28 12 -46 30 -46 17 0 30 12 30 26 0 15 -10 27 -21 27
-12 0 -16 9 -9 20 7 11 3 20 -9 20 -11 0 -21 -21 -21 -47z"/>
<path d="M980 145 c0 -25 157 -66 170 -45 5 8 -15 20 -45 25 -30 5 -71 16 -90
24 -20 9 -35 7 -35 -4z"/>
<path d="M1240 58 c0 -10 14 -18 31 -18 17 0 26 -9 19 -20 -7 -11 2 -20 19
-20 37 0 41 31 6 53 -37 23 -75 26 -75 5z"/>
</g>
</svg>
